<?xml version="1.0" standalone="no"?>
<!DOCTYPE svg PUBLIC "-//W3C//DTD SVG 20010904//EN"
 "http://www.w3.org/TR/2001/REC-SVG-20010904/DTD/svg10.dtd">
<svg version="1.0" xmlns="http://www.w3.org/2000/svg"
 width="246.000000pt" height="284.000000pt" viewBox="0 0 246.000000 284.000000"
 preserveAspectRatio="xMidYMid meet">

<g transform="translate(0.000000,284.000000) scale(0.100000,-0.100000)"
fill="#000000" stroke="none">
<path d="M1148 2572 c-33 -20 -35 -32 -8 -39 27 -7 25 -24 -2 -22 -13 1 -44 1
-70 1 -39 -2 -48 -6 -54 -24 -12 -40 -78 -138 -97 -144 -9 -3 -22 -14 -28 -25
-5 -11 -14 -17 -20 -14 -5 4 -9 -6 -9 -20 0 -15 -5 -35 -10 -46 -11 -19 8 -53
88 -161 27 -38 49 -50 39 -23 -4 8 -1 17 5 21 8 5 9 -5 6 -34 -4 -29 -2 -42 8
-46 8 -3 11 0 7 10 -11 29 6 64 32 64 13 0 27 4 30 10 7 11 85 11 85 0 0 -10
-36 -41 -41 -36 -2 2 -21 6 -41 9 -36 5 -37 4 -26 -17 16 -29 19 -95 5 -130
-9 -24 -8 -31 7 -41 26 -20 53 -147 27 -131 -14 9 -31 -42 -31 -91 0 -27 9
-65 21 -91 23 -48 17 -62 -27 -62 -11 0 -25 -5 -30 -10 -8 -8 -16 3 -29 36
-17 45 -17 102 1 148 5 13 -7 9 -42 -17 -50 -36 -135 -78 -237 -117 -31 -12
-68 -35 -81 -51 -52 -61 -116 -265 -116 -368 0 -39 -13 -120 -38 -228 -9 -40
-14 -75 -11 -77 2 -3 25 0 49 6 56 12 194 3 246 -17 21 -9 28 -13 14 -10 -60
14 -250 18 -280 5 -40 -17 -39 -31 2 -19 85 24 258 20 258 -6 0 -27 -31 -37
-120 -38 -65 -2 -93 -6 -99 -16 -7 -11 -10 -9 -16 8 -3 11 -11 21 -17 21 -5 0
-8 -7 -4 -15 3 -8 2 -15 -2 -15 -10 0 -9 -312 2 -387 5 -35 15 -68 24 -75 10
-9 47 -13 106 -13 l91 0 2 -95 c2 -52 5 -105 8 -117 l5 -23 583 0 582 0 2 128
c1 70 -3 148 -9 173 -9 38 -8 50 5 70 28 43 84 203 98 277 7 40 16 72 20 72 7
0 20 46 25 93 4 31 -12 37 -21 7 -3 -11 -17 -23 -31 -26 -13 -3 -24 -12 -24
-20 0 -8 -4 -14 -10 -14 -5 0 -10 -7 -10 -15 0 -8 -18 -24 -40 -35 -22 -11
-40 -27 -40 -35 0 -8 -4 -15 -10 -15 -14 0 -12 12 6 38 8 12 20 20 25 17 15
-10 10 22 -6 35 -8 7 -12 16 -10 21 3 4 -4 13 -16 19 -15 9 -19 18 -15 35 7
27 -2 57 -15 49 -5 -3 -9 0 -9 6 0 6 -5 8 -12 4 -9 -5 -8 -2 1 9 21 27 4 33
-22 9 -35 -33 -47 -27 -29 13 16 34 35 45 47 26 3 -6 17 -4 33 5 41 21 135 18
182 -6 39 -20 57 -46 23 -33 -10 4 -14 2 -9 -5 3 -6 15 -10 26 -9 18 1 19 7
15 67 -3 36 -8 130 -10 210 -8 220 -14 264 -43 322 -30 60 -93 110 -130 104
-12 -2 -25 1 -28 5 -3 5 -17 6 -32 2 -24 -6 -26 -5 -13 10 7 10 12 17 10 17
-2 0 -37 14 -78 30 -93 38 -102 38 -95 0 8 -40 -3 -113 -21 -136 -14 -17 -15
-16 -11 22 3 22 8 57 11 77 10 50 0 81 -29 101 l-25 16 5 -48 c4 -34 -1 -67
-18 -117 -21 -65 -25 -70 -54 -73 -19 -2 -38 3 -48 13 -15 16 -14 20 18 63 18
26 36 57 40 70 3 12 9 31 12 42 8 30 -20 25 -45 -6 l-21 -27 -21 24 c-11 13
-18 31 -16 41 3 10 1 16 -4 12 -5 -3 -9 0 -9 5 0 6 8 11 18 11 16 1 16 1 -1
11 -16 9 -18 19 -12 58 3 25 9 57 12 70 5 20 3 23 -11 18 -11 -4 -19 -1 -23
11 -4 9 -9 19 -12 22 -4 3 -12 17 -18 33 -9 19 -20 27 -37 27 -27 0 -53 24
-36 35 18 11 0 26 -33 25 -80 0 -78 -2 -49 56 25 47 28 50 40 33 16 -23 95
-46 100 -29 2 6 22 22 44 36 50 32 59 25 68 -58 4 -35 8 -55 9 -45 0 9 1 20 0
23 0 4 3 10 8 13 5 3 19 30 31 58 61 144 -2 339 -128 397 -45 21 -153 46 -195
46 -5 0 -22 -8 -37 -18z m62 -32 c0 -5 -4 -10 -10 -10 -5 0 -10 5 -10 10 0 6
5 10 10 10 6 0 10 -4 10 -10z m-162 -172 c-3 -7 -14 -14 -26 -14 -18 -1 -20 2
-11 12 14 17 42 18 37 2z m14 -20 c-7 -7 -12 -8 -12 -2 0 14 12 26 19 19 2 -3
-1 -11 -7 -17z m-146 -70 c-9 -5 -14 -13 -11 -18 3 -5 1 -11 -4 -14 -14 -9
-23 25 -10 40 6 7 17 10 26 7 13 -5 13 -7 -1 -15z m347 -325 c-13 -2 -33 -2
-45 0 -13 2 -3 4 22 4 25 0 35 -2 23 -4z m-303 -463 c-6 -11 -15 -18 -21 -15
-5 4 -2 19 8 36 20 34 32 15 13 -21z m253 27 c20 -7 37 -16 37 -22 0 -6 10
-15 23 -20 12 -6 21 -16 20 -22 -2 -7 6 -10 17 -8 27 5 25 -3 -9 -45 l-29 -35
-69 64 c-94 89 -98 94 -76 103 10 3 25 4 33 2 8 -3 32 -11 53 -17z m423 -159
c5 -13 7 -26 6 -30 -1 -5 5 -8 13 -8 8 0 15 -7 15 -15 0 -12 -9 -15 -37 -11
-21 3 -53 5 -70 5 -32 1 -49 21 -18 21 8 0 12 6 9 15 -4 9 3 16 20 21 14 3 26
10 26 15 0 19 29 8 36 -13z m144 -372 c0 -17 -37 -46 -58 -46 -8 0 -5 10 10
30 23 32 48 40 48 16z m-81 -110 c-7 -14 -16 -26 -21 -26 -5 0 -1 14 7 31 20
37 31 33 14 -5z m20 -45 c-8 -17 -17 -31 -21 -31 -11 0 -10 7 8 41 20 39 31
30 13 -10z m71 -6 c0 -16 -27 -32 -37 -21 -7 7 16 36 28 36 5 0 9 -7 9 -15z
m-36 -138 c-5 -15 -80 -37 -127 -37 -34 0 -88 -37 -81 -55 5 -11 -1 -15 -24
-15 -17 0 -59 -7 -94 -16 -50 -13 -91 -15 -203 -10 -77 3 -155 6 -173 6 -43
-1 -72 16 -72 41 0 28 31 55 60 53 267 -21 380 -16 517 22 45 12 192 33 201
28 1 0 0 -8 -4 -17z m-971 -146 c17 -17 1 -24 -54 -23 -58 1 -64 4 -55 28 5
13 15 16 52 11 25 -2 51 -10 57 -16z"/>
<path d="M890 2395 c-6 -8 -10 -20 -8 -28 5 -23 48 -2 48 23 0 23 -22 27 -40
5z"/>
<path d="M1495 1743 c23 -16 38 -17 33 -1 -2 6 -15 12 -28 13 -21 2 -22 1 -5
-12z"/>
<path d="M1888 943 c12 -2 32 -2 45 0 12 2 2 4 -23 4 -25 0 -35 -2 -22 -4z"/>
<path d="M1840 810 c0 -5 5 -10 11 -10 5 0 7 5 4 10 -3 6 -8 10 -11 10 -2 0
-4 -4 -4 -10z"/>
</g>
</svg>
